<?xml version="1.0" encoding="UTF-8" standalone="no"?>
<!-- Created with Inkscape (http://www.inkscape.org/) -->

<svg
   xmlns:dc="http://purl.org/dc/elements/1.1/"
   xmlns:cc="http://creativecommons.org/ns#"
   xmlns:rdf="http://www.w3.org/1999/02/22-rdf-syntax-ns#"
   xmlns:svg="http://www.w3.org/2000/svg"
   xmlns="http://www.w3.org/2000/svg"
   xmlns:sodipodi="http://sodipodi.sourceforge.net/DTD/sodipodi-0.dtd"
   xmlns:inkscape="http://www.inkscape.org/namespaces/inkscape"
   sodipodi:docname="portrait-drj.svg"
   inkscape:version="0.48.4 r9939"
   version="1.1"
   id="svg2985"
   height="311.811"
   width="209.05511">
  <defs
     id="defs3" />
  <sodipodi:namedview
     id="base"
     pagecolor="#ffffff"
     bordercolor="#666666"
     borderopacity="1.0"
     inkscape:pageopacity="0.0"
     inkscape:pageshadow="2"
     inkscape:zoom="2.9152275"
     inkscape:cx="104.52756"
     inkscape:cy="155.9055"
     inkscape:document-units="mm"
     inkscape:current-layer="layer2"
     showgrid="false"
     units="mm"
     inkscape:window-width="1855"
     inkscape:window-height="1056"
     inkscape:window-x="65"
     inkscape:window-y="24"
     inkscape:window-maximized="1"
     fit-margin-top="0"
     fit-margin-left="0"
     fit-margin-right="0"
     fit-margin-bottom="0" />
  <metadata
     id="metadata2989">
    <rdf:RDF>
      <cc:Work
         rdf:about="">
        <dc:format>image/svg+xml</dc:format>
        <dc:type
           rdf:resource="http://purl.org/dc/dcmitype/StillImage" />
        <dc:title />
      </cc:Work>
    </rdf:RDF>
  </metadata>
  <g
     inkscape:label="print"
     inkscape:groupmode="layer"
     id="layer1"
     transform="translate(7.086614,113.38582)">
    <rect
       style="fill:#c20000;fill-opacity:1;stroke:none"
       id="rect2990"
       width="311.81104"
       height="209.05511"
       x="-198.4252"
       y="-7.0866141"
       transform="matrix(0,-1,1,0,0,0)" />
    <path
       inkscape:connector-curvature="0"
       id="path4022"
       style="font-size:64px;font-style:normal;font-variant:normal;font-weight:600;font-stretch:normal;text-align:start;line-height:63.99999856999999537%;letter-spacing:0px;word-spacing:0px;writing-mode:lr-tb;text-anchor:start;fill:#000000;fill-opacity:1;stroke:none;font-family:URW Gothic L;-inkscape-font-specification:URW Gothic L Semi-Bold"
       d="m 47.634152,-95.27059 -8.512,0 0,14.976 c -2.495997,-2.751998 -6.592004,-4.416 -11.072,-4.416 -9.91999,0 -17.728,8.32001 -17.728,18.944 0,10.495989 7.74401,18.624 17.792,18.624 4.799995,0 8.320003,-1.600004 11.712,-5.44 l 0,4.608 7.808,0 0,-47.296 m -18.368,18.368 c 5.951994,0 10.496,4.800006 10.496,11.008 0,6.143994 -4.544006,10.944 -10.304,10.944 -5.951994,0 -10.56,-4.928007 -10.56,-11.2 0,-6.015994 4.544006,-10.752 10.368,-10.752" />
    <path
       inkscape:connector-curvature="0"
       id="path4024"
       style="font-size:64px;font-style:normal;font-variant:normal;font-weight:600;font-stretch:normal;text-align:start;line-height:63.99999857%;letter-spacing:0px;word-spacing:0px;writing-mode:lr-tb;text-anchor:start;fill:#ffffff;fill-opacity:1;stroke:none;font-family:URW Gothic L;-inkscape-font-specification:URW Gothic L Semi-Bold"
       d="m 90.012152,-83.43059 -7.808,0 0,4.736 c -2.943997,-3.903996 -6.464005,-5.568 -11.584,-5.568 -10.495989,0 -18.048,7.872011 -18.048,18.688 0,10.687989 7.48801,18.432 17.856,18.432 4.991995,0 8.384003,-1.600004 11.776,-5.44 l 0,4.608 7.808,0 0,-35.456 m -18.496,6.976 c 6.079994,0 10.432,4.544006 10.432,11.008 0,2.559997 -1.024001,5.504001 -2.56,7.296 -1.727998,2.047998 -4.480003,3.2 -7.744,3.2 -6.207994,0 -10.496,-4.224007 -10.496,-10.432 0,-6.463994 4.288006,-11.072 10.368,-11.072" />
    <path
       inkscape:connector-curvature="0"
       id="path4026"
       style="font-size:64px;font-style:normal;font-variant:normal;font-weight:600;font-stretch:normal;text-align:start;line-height:63.99999857%;letter-spacing:0px;word-spacing:0px;writing-mode:lr-tb;text-anchor:start;fill:#ffffff;fill-opacity:1;stroke:none;font-family:URW Gothic L;-inkscape-font-specification:URW Gothic L Semi-Bold"
       d="m 107.23815,-47.97459 6.784,0 14.272,-35.456 -9.6,0 -8.064,23.488 -8.192,-23.488 -9.471998,0 14.271998,35.456" />
    <path
       style="font-size:64px;font-style:normal;font-variant:normal;font-weight:600;font-stretch:normal;text-align:start;line-height:63.99999857%;letter-spacing:0px;word-spacing:0px;writing-mode:lr-tb;text-anchor:start;fill:#ffffff;fill-opacity:1;stroke:none;font-family:URW Gothic L;-inkscape-font-specification:URW Gothic L Semi-Bold"
       d="m 132.23315,-47.97459 8.512,0 0,-35.456 -8.512,0 0,35.456"
       id="path4061" />
    <path
       inkscape:connector-curvature="0"
       id="path4030"
       style="font-size:64px;font-style:normal;font-variant:normal;font-weight:600;font-stretch:normal;text-align:start;line-height:63.99999857%;letter-spacing:0px;word-spacing:0px;writing-mode:lr-tb;text-anchor:start;fill:#ffffff;fill-opacity:1;stroke:none;font-family:URW Gothic L;-inkscape-font-specification:URW Gothic L Semi-Bold"
       d="m 183.38415,-95.27059 -8.512,0 0,14.976 c -2.496,-2.751998 -6.592,-4.416 -11.072,-4.416 -9.91999,0 -17.728,8.32001 -17.728,18.944 0,10.495989 7.74401,18.624 17.792,18.624 4.8,0 8.32001,-1.600004 11.712,-5.44 l 0,4.608 7.808,0 0,-47.296 m -18.368,18.368 c 5.952,0 10.496,4.800006 10.496,11.008 0,6.143994 -4.544,10.944 -10.304,10.944 -5.95199,0 -10.56,-4.928007 -10.56,-11.2 0,-6.015994 4.54401,-10.752 10.368,-10.752" />
    <path
       inkscape:connector-curvature="0"
       id="path4032"
       style="font-size:64px;font-style:normal;font-variant:normal;font-weight:600;font-stretch:normal;text-align:start;line-height:63.99999857%;letter-spacing:0px;word-spacing:0px;writing-mode:lr-tb;text-anchor:start;fill:#000000;fill-opacity:1;stroke:none;font-family:URW Gothic L;-inkscape-font-specification:URW Gothic L Semi-Bold"
       d="m 21.858152,-7.0145912 8.512,0 0,-19.7119998 c 0,-5.503995 2.496005,-8.256 7.616,-8.384 l 0,-8.192 -0.64,0 c -3.647996,0 -5.440002,1.024003 -7.68,4.288 l 0,-3.456 -7.808,0 0,35.4559998" />
    <g
       id="g4571"
       transform="translate(8,0)">
      <path
         id="path4057"
         d="m 13.010152,-1.5105921 0,32.8960001 c 0,4.991995 -0.320003,5.568 -3.5199999,6.144 l 0,8.256 c 3.2639969,0 6.1440019,-1.088002 8.2559999,-3.072 2.623997,-2.431998 3.776,-5.824005 3.776,-11.136 l 0,-33.0880001 -8.512,0"
         style="font-size:64px;font-style:normal;font-variant:normal;font-weight:600;font-stretch:normal;text-align:start;line-height:63.99999857%;letter-spacing:0px;word-spacing:0px;writing-mode:lr-tb;text-anchor:start;fill:#000000;fill-opacity:1;stroke:none;font-family:URW Gothic L;-inkscape-font-specification:URW Gothic L Semi-Bold"
         inkscape:connector-curvature="0" />
      <path
         d="m 45.699152,-2.3425921 c -10.30399,0 -18.752,8.3840101 -18.752,18.5600001 0,10.23999 8.44801,18.56 18.816,18.56 10.30399,0 18.88,-8.32001 18.88,-18.304 0,-10.5599896 -8.256011,-18.8160001 -18.944,-18.8160001 m 0.064,7.808 c 5.695994,0 10.304,4.8640061 10.304,10.7520001 0,5.951994 -4.608006,10.752 -10.24,10.752 -5.759994,0 -10.304,-4.800006 -10.304,-10.88 0,-5.823994 4.672006,-10.6240001 10.24,-10.6240001"
         style="font-size:64px;font-style:normal;font-variant:normal;font-weight:600;font-stretch:normal;text-align:start;line-height:63.99999857%;letter-spacing:0px;word-spacing:0px;writing-mode:lr-tb;text-anchor:start;fill:#ffffff;fill-opacity:1;stroke:none;font-family:URW Gothic L;-inkscape-font-specification:URW Gothic L Semi-Bold"
         id="path4036"
         inkscape:connector-curvature="0" />
      <path
         d="m 69.483152,33.945408 8.512,0 0,-16.704 c 0,-4.735995 0.320001,-6.784002 1.408,-8.5120001 1.343999,-2.1119979 3.584003,-3.264 6.272,-3.264 2.175998,0 3.968001,0.7680014 5.12,2.24 1.151999,1.5359984 1.664,4.1600051 1.664,8.8960001 l 0,17.344 8.511998,0 0,-19.008 c 0,-6.3359938 -0.64,-9.4080029 -2.559998,-12.1600001 -2.303998,-3.3279967 -6.144005,-5.12 -11.072,-5.12 -4.031996,0 -6.848003,1.216003 -9.984,4.224 l 0,-3.392 -7.872,0 0,35.4560001"
         style="font-size:64px;font-style:normal;font-variant:normal;font-weight:600;font-stretch:normal;text-align:start;line-height:63.99999857%;letter-spacing:0px;word-spacing:0px;writing-mode:lr-tb;text-anchor:start;fill:#ffffff;fill-opacity:1;stroke:none;font-family:URW Gothic L;-inkscape-font-specification:URW Gothic L Semi-Bold"
         id="path4038"
         inkscape:connector-curvature="0" />
      <path
         d="m 142.99415,19.993408 c 0.256,-1.215999 0.32,-1.984001 0.32,-3.264 0,-11.0079891 -7.74401,-19.0720001 -18.304,-19.0720001 -10.43199,0 -18.688,8.2560104 -18.688,18.6880001 0,10.367989 8.38401,18.432 19.2,18.432 5.824,0 10.36801,-2.112004 14.08,-6.4 1.344,-1.663998 2.24,-3.136002 2.816,-4.928 l -9.28,0 c -2.176,2.559997 -4.288,3.52 -7.808,3.52 -5.05599,0 -8.768,-2.688004 -9.792,-6.976 l 27.456,0 m -27.712,-7.488 c 1.344,-4.5439956 4.80001,-7.0400001 9.856,-7.0400001 5.248,0 8.704,2.4960045 9.792,7.0400001 l -19.648,0"
         style="font-size:64px;font-style:normal;font-variant:normal;font-weight:600;font-stretch:normal;text-align:start;line-height:63.99999857%;letter-spacing:0px;word-spacing:0px;writing-mode:lr-tb;text-anchor:start;fill:#ffffff;fill-opacity:1;stroke:none;font-family:URW Gothic L;-inkscape-font-specification:URW Gothic L Semi-Bold"
         id="path4040"
         inkscape:connector-curvature="0" />
      <path
         d="m 146.61815,22.681408 c 0.384,3.455996 0.96,5.248002 2.368,7.168 2.304,3.071997 6.33601,4.928 10.624,4.928 7.10399,0 12.672,-5.312007 12.672,-12.096 0,-3.071997 -1.152,-5.632002 -3.328,-7.36 -1.344,-1.151999 -3.456,-2.048001 -6.528,-3.008 -3.45599,-1.087999 -3.456,-1.088001 -4.288,-1.472 -1.152,-0.512 -1.728,-1.3440012 -1.728,-2.3680001 0,-1.7279983 1.408,-3.008 3.264,-3.008 1.792,0 2.944,0.9600018 3.328,2.816 l 8.32,0 c -0.128,-3.007997 -0.832,-4.800002 -2.56,-6.72 -2.24,-2.49599754 -5.568,-3.904 -9.088,-3.904 -6.59199,0 -11.776,4.736006 -11.776,10.816 0,5.1839951 2.81601,8.1280021 9.856,10.4960001 3.264,1.087999 3.52,1.216 4.416,1.792 1.024,0.639999 1.6,1.600001 1.6,2.752 0,1.983998 -1.664,3.456 -3.84,3.456 -2.496,0 -3.904,-1.280003 -4.736,-4.288 l -8.576,0"
         style="font-size:64px;font-style:normal;font-variant:normal;font-weight:600;font-stretch:normal;text-align:start;line-height:63.99999857%;letter-spacing:0px;word-spacing:0px;writing-mode:lr-tb;text-anchor:start;fill:#ffffff;fill-opacity:1;stroke:none;font-family:URW Gothic L;-inkscape-font-specification:URW Gothic L Semi-Bold"
         id="path4042"
         inkscape:connector-curvature="0" />
    </g>
    <text
       xml:space="preserve"
       style="font-size:16px;font-style:normal;font-variant:normal;font-stretch:normal;text-align:start;line-height:125%;letter-spacing:0px;word-spacing:0px;writing-mode:lr-tb;text-anchor:start;fill:#000000;fill-opacity:1;stroke:none;font-family:URW Gothic L;-inkscape-font-specification:URW Gothic L Book"
       x="9.7272491"
       y="180.82957"
       id="text4597"
       sodipodi:linespacing="125%"><tspan
         sodipodi:role="line"
         id="tspan4601"
         x="9.7272491"
         y="180.82957">github.com/drj11</tspan></text>
    <text
       sodipodi:linespacing="125%"
       id="text4603"
       y="162.07957"
       x="9.7272491"
       style="font-size:16px;font-style:normal;font-variant:normal;font-stretch:normal;text-align:start;line-height:125%;letter-spacing:0px;word-spacing:0px;writing-mode:lr-tb;text-anchor:start;fill:#000000;fill-opacity:1;stroke:none;font-family:URW Gothic L;-inkscape-font-specification:URW Gothic L Book"
       xml:space="preserve"><tspan
         y="162.07957"
         x="9.7272491"
         id="tspan4605"
         sodipodi:role="line"
         dy="0 0 0 1.5 -1.5">drj@pobox.com</tspan></text>
    <text
       xml:space="preserve"
       style="font-size:16px;font-style:normal;font-variant:normal;font-stretch:normal;text-align:start;line-height:125%;letter-spacing:0px;word-spacing:0px;writing-mode:lr-tb;text-anchor:start;fill:#000000;fill-opacity:1;stroke:none;font-family:URW Gothic L;-inkscape-font-specification:URW Gothic L Book"
       x="9.7272491"
       y="144.82957"
       id="text4607"
       sodipodi:linespacing="125%"><tspan
         sodipodi:role="line"
         id="tspan4609"
         x="9.7272491"
         y="144.82957"
         dy="0 -1.5">@drjtwit</tspan></text>
    <text
       xml:space="preserve"
       style="font-size:40px;font-style:normal;font-weight:normal;line-height:125%;letter-spacing:0px;word-spacing:0px;fill:#000000;fill-opacity:1;stroke:none;font-family:Sans"
       x="276.94397"
       y="156.00513"
       id="text4611"
       sodipodi:linespacing="125%"
       transform="translate(-7.086614,-113.38582)"><tspan
         sodipodi:role="line"
         id="tspan4613"
         x="276.94397"
         y="156.00513" /></text>
  </g>
  <g
     inkscape:groupmode="layer"
     id="layer2"
     inkscape:label="do no print"
     style="display:none"
     transform="translate(7.086614,7.0865969)">
    <rect
       style="fill:none;stroke:#00a900;stroke-opacity:1"
       id="rect2994"
       width="180.70866"
       height="283.46457"
       x="7.0866113"
       y="7.0866208" />
    <rect
       y="-6.525104"
       x="-6.525106"
       height="310.68802"
       width="207.9321"
       id="rect3841"
       style="fill:none;stroke:#00a900;stroke-width:1.12301123;stroke-opacity:1" />
  </g>
</svg>
